<svg width="61" height="61" viewBox="0 0 61 61" fill="none" xmlns="http://www.w3.org/2000/svg">
<g clip-path="url(#clip0_23_139)">
<path d="M29.742 19.9536C27.6503 17.8622 24.8696 16.7107 21.9115 16.7107C18.9536 16.7107 16.1729 17.8622 14.0813 19.9536C13.3267 20.7087 13.3265 21.9371 14.0811 22.6922L37.9211 46.5317C38.2867 46.8973 38.7729 47.0987 39.29 47.0987C39.8072 47.0987 40.2935 46.8973 40.6591 46.5317C42.7508 44.4398 43.9024 41.6591 43.9024 38.7013C43.9024 35.743 42.7504 32.9623 40.6588 30.8708L29.742 19.9536Z" fill="black"/>
<path d="M45.34 0.0512695L44.4973 0.89373C43.0583 2.33291 42.6942 4.49303 43.5687 6.316C43.4937 6.37131 43.4262 6.4292 43.3644 6.49096L33.5478 16.308C32.793 17.0626 32.793 18.291 33.5478 19.0461L41.5669 27.065C41.9324 27.4306 42.4185 27.632 42.9356 27.632H42.9358C43.4528 27.632 43.939 27.4306 44.3047 27.065L54.1217 17.2479C54.1837 17.1857 54.2416 17.1182 54.2969 17.0438C54.9349 17.3488 55.6424 17.5095 56.3533 17.5095C57.6247 17.5095 58.8201 17.0143 59.7189 16.1157L60.5617 15.2726L45.34 0.0512695Z" fill="black"/>
<path d="M23.7522 36.8602C22.6399 35.7479 21.4241 35.0291 20.6547 35.0291C20.413 35.0291 20.2204 35.0987 20.0825 35.2366L4.75204 50.5838L0.561768 60.051L10.0827 55.8237L25.3759 40.5305C25.6728 40.2334 25.6484 39.6737 25.3068 38.9552C24.9918 38.2916 24.4397 37.5479 23.7522 36.8602Z" fill="black"/>
</g>
<defs>
<clipPath id="clip0_23_139">
<rect width="60" height="60" fill="white" transform="translate(0.561768 0.0512695)"/>
</clipPath>
</defs>
</svg>
